<svg xmlns="http://www.w3.org/2000/svg" xmlns:xlink="http://www.w3.org/1999/xlink" t="1572237538302" version="1.1" p-id="727" width="1024" height="1024"><rect id="backgroundrect" width="100%" height="100%" x="0" y="0" fill="none" stroke="none"/><defs><style type="text/css"/></defs><g class="currentLayer" style=""><title>Layer 1</title><path d="M1016.1077438796185,650.438635045289 c0,38.114590031806664 -33.032644297205465,76.22918006361333 -33.032644297205465,78.77015233537345 c-137.212524114504,157.54030586182787 -330.3264465452974,246.47434847532276 -533.6042604452932,246.47434847532276 c-152.45836012722665,0 -284.58893850712946,-73.68820779185319 -421.8014626216334,-142.29446865802427 c-12.704863740962535,-7.622918006361333 -25.40972629084413,-17.786808284482795 -25.40972748192507,-33.032645488286406 v-182.95003215267198 c0,-20.327781747323865 15.245836012722666,-35.57361776004653 35.57361776004653,-35.57361656896559 h647.9480305407133 c20.327781747323865,0 50.81945377276919,17.786808284482795 53.360426044529326,58.44237058804959 c2.5409722717601313,0 154.99933239898675,-55.90139831628946 175.32711414631063,-63.524316322650805 c53.360426044529326,-17.786808284482795 101.63890635445746,17.786808284482795 101.63890635445746,73.68820779185319 zM843.3216031961491,81.26075683994912 v355.73617402722255 c0,43.19653576640786 -33.032644297205465,76.22918006361333 -76.22918006361333,76.22918006361333 h-559.0139879272183 c-43.19653576640786,0 -76.22918006361333,-33.032644297205465 -76.22918006361333,-76.22918006361333 v-355.73617402722255 c0,-43.19653576640786 33.032644297205465,-76.22918006361333 76.22918006361333,-76.22918006361333 h559.0139879272183 c40.655562303566796,0 76.22918006361333,35.57361776004653 76.22918006361333,76.22918006361333 zm-335.40839227989864,218.52364991271853 v-45.737508038167995 h76.22918006361333 c12.704863740962535,0 20.327781747323865,-10.163890278121466 20.32778055624293,-20.327781747323865 s-10.163890278121466,-20.327781747323865 -20.32778055624293,-20.327781747323865 h-50.81945377276919 l55.90139831628946,-78.77015233537345 c7.622918006361333,-7.622918006361333 7.622918006361333,-20.327781747323865 0,-30.491672025445332 c-7.622918006361333,-7.622918006361333 -20.327781747323865,-7.622918006361333 -30.491672025445332,0 l-71.14723432901214,101.63890635445746 l-71.14723432901214,-101.63890635445746 c-7.622918006361333,-7.622918006361333 -20.327781747323865,-7.622918006361333 -30.491672025445332,0 c-7.622918006361333,7.622918006361333 -7.622918006361333,20.327781747323865 0,30.491672025445332 l58.44237058804959,78.77015233537345 h-50.81945258168826 c-12.704863740962535,0 -20.327781747323865,10.163890278121466 -20.327781747323865,20.327781747323865 s10.163890278121466,20.327781747323865 20.327781747323865,20.327781747323865 h73.68820660077225 v45.737508038167995 h-73.68820660077225 c-12.704863740962535,0 -20.327781747323865,10.163890278121466 -20.327781747323865,20.32778055624293 c0,12.704863740962535 10.163890278121466,20.327781747323865 20.327781747323865,20.327781747323865 h73.68820660077225 v60.983344050890665 c0,12.704863740962535 10.163890278121466,20.327781747323865 20.327781747323865,20.327781747323865 c12.704863740962535,0 20.327781747323865,-10.163890278121466 20.327781747323865,-20.327781747323865 V340.4399690562344 h76.22918006361333 c12.704863740962535,0 20.327781747323865,-10.163890278121466 20.32778055624293,-20.327781747323865 c0,-12.704863740962535 -10.163890278121466,-20.327781747323865 -20.32778055624293,-20.32778055624293 h-76.22918006361333 z" fill="#ffffff" p-id="728" id="svg_1" class=""/></g></svg>