<svg xmlns="http://www.w3.org/2000/svg" xmlns:xlink="http://www.w3.org/1999/xlink" t="1572237956642" version="1.1" p-id="1327" width="954.8421032157967" height="1023.6315783529731"><rect id="backgroundrect" width="100%" height="100%" x="0" y="0" fill="none" stroke="none"/><defs><style type="text/css"/></defs><g class="currentLayer" style=""><title>Layer 1</title><path d="M288.08180023118047,206.25143666140124 h374.1521899414063 c18.70760949707031,0 34.01383544921875,-15.306225952148436 34.01383544921875,-34.01383544921875 v-68.0276708984375 c0,-56.12282849121094 -45.91867785644531,-102.04150634765625 -102.04150634765625,-102.04150634765625 H356.10947112961793 c-56.12282849121094,0 -102.04150634765625,45.91867785644531 -102.04150634765625,102.04150634765625 v68.0276708984375 c0,18.70760949707031 15.306225952148436,34.01383544921875 34.01383544921875,34.01383544921875 zm561.2282849121094,-119.04842407226563 h-34.01383544921875 c-10.204150634765625,0 -17.006917724609377,6.8027670898437504 -17.006917724609377,17.006917724609377 v68.0276708984375 c0,74.83043798828125 -61.224903808593744,136.055341796875 -136.055341796875,136.055341796875 H288.08180023118047 c-74.83043798828125,0 -136.055341796875,-61.224903808593744 -136.055341796875,-136.055341796875 v-68.0276708984375 c0,-10.204150634765625 -6.8027670898437504,-17.006917724609377 -17.006917724609377,-17.006917724609377 h-34.01383544921875 c-56.12282849121094,0 -102.04150634765625,45.91867785644531 -102.04150634765625,102.04150634765625 v731.2974621582031 c0,56.12282849121094 45.91867785644531,102.04150634765625 102.04150634765625,102.04150634765625 h748.3043798828126 c56.12282849121094,0 102.04150634765625,-45.91867785644531 102.04150634765625,-102.04150634765625 V189.24451893679185 c0,-56.12282849121094 -45.91867785644531,-102.04150634765625 -102.04150634765625,-102.04150634765625 zM356.10947112961793,784.48663929812 c0,18.70760949707031 -15.306225952148436,34.01383544921875 -34.01383544921875,34.01383544921875 h-34.01383544921875 c-18.70760949707031,0 -34.01383544921875,-15.306225952148436 -34.01383544921875,-34.01383544921875 V614.4174620520263 c0,-18.70760949707031 15.306225952148436,-34.01383544921875 34.01383544921875,-34.01383544921875 h34.01383544921875 c18.70760949707031,0 34.01383544921875,15.306225952148436 34.01383544921875,34.01383544921875 v170.06917724609377 zm170.06917724609377,0 c0,18.70760949707031 -15.306225952148436,34.01383544921875 -34.01383544921875,34.01383544921875 h-34.01383544921875 c-18.70760949707031,0 -34.01383544921875,-15.306225952148436 -34.01383544921875,-34.01383544921875 V461.3552025305418 c0,-18.70760949707031 15.306225952148436,-34.01383544921875 34.01383544921875,-34.01383544921875 h34.01383544921875 c18.70760949707031,0 34.01383544921875,15.306225952148436 34.01383544921875,34.01383544921875 v323.1314367675781 zm170.06917724609377,0 c0,18.70760949707031 -15.306225952148436,34.01383544921875 -34.01383544921875,34.01383544921875 h-34.01383544921875 c-18.70760949707031,0 -34.01383544921875,-15.306225952148436 -34.01383544921875,-34.01383544921875 V529.3828734289793 c0,-18.70760949707031 15.306225952148436,-34.01383544921875 34.01383544921875,-34.01383544921875 h34.01383544921875 c18.70760949707031,0 34.01383544921875,15.306225952148436 34.01383544921875,34.01383544921875 v255.1037658691406 z" p-id="1328" fill="#e6e6e6" id="svg_1" class=""/></g></svg>