<?xml version="1.0" standalone="no"?>
<!DOCTYPE svg PUBLIC "-//W3C//DTD SVG 20010904//EN"
 "http://www.w3.org/TR/2001/REC-SVG-20010904/DTD/svg10.dtd">
<svg version="1.0" xmlns="http://www.w3.org/2000/svg"
 width="2204.000000pt" height="1472.000000pt" viewBox="0 0 2204.000000 1472.000000"
 preserveAspectRatio="xMidYMid meet">
<metadata>
Created by potrace 1.16, written by Peter Selinger 2001-2019
</metadata>
<g transform="translate(0.000000,1472.000000) scale(0.100000,-0.100000)"
fill="#000000" stroke="none">
<path d="M0 7360 l0 -7360 11020 0 11020 0 0 7360 0 7360 -11020 0 -11020 0 0
-7360z m19260 951 c0 -17 -29 -78 -42 -88 -7 -5 -29 -16 -48 -23 -19 -7 -39
-18 -45 -24 -5 -6 -38 -12 -72 -13 -62 -1 -63 -1 -51 20 16 30 39 46 66 47 12
0 22 5 22 11 0 6 12 9 28 6 15 -2 21 -2 15 0 -19 6 -16 33 3 33 8 0 22 7 30
15 9 8 20 15 25 15 5 0 9 -7 9 -15 0 -8 -7 -15 -15 -15 -8 0 -15 -4 -15 -10 0
-5 7 -10 15 -10 8 0 15 -5 15 -11 0 -5 5 -7 10 -4 6 3 10 22 10 41 0 27 4 34
20 34 11 0 20 -4 20 -9z m-7 -246 c-15 -13 -40 -25 -55 -25 -15 0 -33 -8 -40
-18 -9 -13 -31 -21 -70 -25 -53 -7 -56 -6 -51 13 3 11 0 20 -5 20 -6 0 -16 10
-23 21 -9 17 -8 23 2 30 10 6 3 9 -19 9 -20 0 -31 4 -27 10 3 6 22 10 41 10
19 0 34 5 34 10 0 6 -14 10 -31 10 -17 0 -28 4 -24 10 3 6 35 10 71 10 36 0
64 -4 64 -10 0 -17 77 -12 84 5 5 13 13 9 41 -20 l36 -35 -28 -25z m115 -165
c10 -16 10 -24 0 -40 -7 -11 -18 -20 -25 -20 -7 0 -13 -9 -13 -20 0 -11 7 -20
15 -20 9 0 15 -9 15 -23 0 -16 9 -28 25 -35 26 -12 33 -36 14 -48 -8 -5 -8 -8
0 -14 7 -3 14 -22 17 -41 l6 -34 -94 -32 c-51 -17 -124 -44 -163 -58 -69 -26
-112 -42 -230 -84 -70 -25 -104 -40 -125 -58 -9 -7 -36 -19 -60 -28 -35 -12
-45 -13 -53 -3 -6 9 -7 8 -3 -4 7 -23 -21 -38 -57 -31 -15 3 -34 0 -42 -7 -20
-17 -35 -4 -35 31 0 24 -4 29 -25 29 -22 0 -25 4 -25 33 0 19 7 48 16 65 16
34 34 50 34 33 0 -20 32 -11 37 9 6 23 43 27 43 5 0 -11 11 -15 40 -15 29 0
40 4 40 15 0 11 11 15 40 15 40 0 40 0 40 39 0 33 4 40 23 43 18 2 23 10 25
41 2 24 8 37 18 37 8 0 14 -7 14 -15 0 -8 5 -15 10 -15 6 0 10 12 10 28 0 56
20 100 59 131 21 17 43 31 47 31 5 0 31 11 59 25 29 15 51 21 53 15 6 -16 72
-12 78 5 4 10 20 15 45 15 21 0 39 5 39 10 0 6 17 10 38 10 26 0 41 -6 50 -20z
m-1288 -155 c0 -41 4 -57 15 -62 14 -5 14 -8 0 -29 -19 -29 -19 -52 0 -98 15
-36 15 -36 -10 -36 -24 0 -31 -15 -26 -56 1 -7 -12 -25 -29 -40 -16 -16 -30
-36 -30 -45 0 -9 -14 -22 -30 -29 -28 -12 -29 -14 -15 -30 14 -15 13 -18 -10
-28 -20 -9 -25 -19 -25 -47 0 -29 -5 -37 -25 -45 -14 -5 -25 -15 -25 -21 0
-26 -33 -79 -50 -79 -10 0 -23 -7 -30 -15 -7 -8 -20 -15 -29 -15 -9 0 -22 -5
-28 -11 -7 -7 -54 -26 -105 -43 -81 -27 -104 -31 -180 -28 l-88 3 0 44 c0 34
4 44 19 48 15 4 20 13 19 38 -1 43 18 113 31 117 6 2 11 12 11 23 0 12 7 19
20 19 17 0 20 7 20 40 0 34 -3 40 -21 40 -19 0 -18 1 5 24 15 13 26 27 26 32
0 5 8 17 18 26 32 32 49 53 61 76 7 13 26 28 42 34 16 5 29 14 29 18 0 15 118
130 134 130 8 0 20 9 26 20 6 11 17 20 25 20 8 0 15 5 15 10 0 13 77 13 82 0
2 -6 8 -6 18 0 13 8 12 10 -2 10 -11 0 -18 8 -18 20 0 18 7 20 80 20 l80 0 0
-55z m-4480 -975 l0 -50 40 0 c30 0 40 -4 40 -16 0 -14 2 -15 17 -3 15 13 15
14 0 17 -12 3 -17 14 -17 43 l0 39 49 0 49 0 4 -40 c2 -28 0 -40 -9 -40 -7 0
-13 -7 -13 -15 0 -12 16 -15 80 -15 l80 0 0 33 c1 26 2 29 11 15 5 -10 21 -18
35 -18 17 0 39 -14 64 -40 34 -35 44 -40 84 -40 39 0 46 -3 46 -20 0 -17 7
-20 40 -20 22 0 40 -4 40 -10 0 -5 19 -10 43 -11 49 -1 41 -5 -26 -14 -46 -6
-48 -8 -33 -24 9 -10 16 -27 16 -39 0 -12 6 -22 14 -22 7 0 27 -7 42 -15 33
-17 184 -21 184 -5 0 6 19 11 43 12 l42 1 -45 7 c-26 4 2 6 65 3 61 -3 119 -9
130 -13 11 -5 36 -11 55 -12 19 -2 34 -8 33 -14 -4 -19 49 -2 54 17 7 25 23
24 23 -1 0 -11 -6 -20 -14 -20 -9 0 -12 -7 -9 -20 3 -11 9 -20 14 -20 5 0 9
-4 9 -10 0 -5 -13 -10 -30 -10 -19 0 -34 -7 -42 -20 -7 -11 -18 -20 -24 -20
-26 0 -64 -42 -64 -71 0 -29 13 -38 26 -18 4 8 9 8 17 0 6 -6 44 -11 84 -11
l73 0 0 40 c0 33 3 40 19 40 21 0 93 38 99 52 2 4 20 8 40 8 28 -1 43 -8 62
-30 13 -17 32 -30 42 -30 10 0 18 -4 18 -9 0 -5 36 -12 79 -16 70 -6 79 -9 83
-28 4 -20 1 -22 -39 -18 -24 1 -43 7 -43 12 0 5 -16 9 -35 9 -24 0 -45 8 -63
25 -27 25 -62 34 -62 15 0 -5 -22 -10 -48 -10 -38 0 -53 -5 -71 -24 -21 -22
-21 -27 -10 -64 10 -36 9 -46 -9 -83 -12 -24 -20 -43 -19 -44 19 -10 77 -21
77 -14 0 5 13 9 29 9 17 0 33 5 36 10 4 6 10 8 14 5 5 -2 23 0 42 6 69 20 121
26 157 18 27 -6 50 -4 84 8 45 16 50 16 132 -6 72 -19 127 -25 296 -33 8 0 44
5 80 12 73 14 163 14 168 -1 2 -5 21 -9 43 -9 32 0 39 -3 39 -20 0 -18 7 -20
80 -20 47 0 80 4 80 10 0 6 9 10 20 10 11 0 19 5 18 11 -2 6 6 16 17 22 11 7
23 16 26 20 4 5 40 6 81 2 44 -4 78 -3 81 2 3 5 25 9 49 8 39 -1 43 -4 46 -28
2 -15 10 -27 18 -27 19 0 18 -16 -1 -24 -26 -10 -16 -26 15 -26 17 0 30 5 31
13 0 6 5 2 11 -10 13 -27 -4 -53 -33 -53 -32 0 -99 -31 -99 -46 0 -16 55 -20
65 -4 3 6 17 10 31 10 13 0 33 5 44 10 11 6 29 14 40 20 12 6 21 6 25 0 6 -10
-15 -50 -27 -50 -5 0 -8 -6 -8 -14 0 -8 -24 -28 -54 -45 -29 -17 -59 -38 -66
-46 -7 -8 -16 -12 -21 -9 -5 3 -28 -8 -52 -25 -23 -17 -68 -40 -101 -52 -45
-17 -61 -29 -68 -50 -7 -20 -20 -29 -51 -38 -101 -27 -131 -29 -230 -19 -147
16 -248 13 -263 -6 -15 -22 -24 -20 -24 4 0 11 5 20 10 20 6 0 10 8 10 18 0
24 -45 41 -123 49 -52 5 -72 2 -91 -11 -19 -12 -37 -15 -66 -10 -27 4 -53 1
-82 -11 -24 -9 -59 -19 -79 -21 -71 -7 -129 -24 -155 -47 -33 -29 -55 -35
-139 -36 -107 -2 -113 -18 -11 -26 73 -6 86 -10 86 -25 0 -10 -7 -21 -16 -24
-8 -3 -12 -11 -8 -17 9 -15 276 -4 305 11 11 6 50 8 96 4 57 -4 95 -2 139 10
35 9 75 13 93 10 21 -4 54 1 99 17 38 13 93 23 129 24 34 1 68 7 77 14 9 8 16
9 16 4 0 -14 -30 -53 -41 -53 -16 0 -89 -52 -89 -64 0 -17 -90 -106 -106 -106
-8 0 -29 -8 -47 -17 -18 -9 -36 -18 -42 -18 -5 -1 -16 -3 -22 -3 -7 -1 -18
-22 -24 -46 -8 -34 -23 -53 -66 -90 -30 -25 -59 -46 -64 -46 -5 0 -9 13 -9 29
0 17 -4 33 -10 36 -5 3 -10 17 -10 31 0 32 -25 80 -45 88 -35 13 -55 4 -111
-49 -33 -30 -64 -55 -71 -55 -6 0 -15 -5 -19 -12 -4 -7 -3 -8 4 -4 30 19 6
-20 -45 -73 l-58 -59 -130 -7 c-256 -13 -305 -21 -374 -55 -86 -43 -132 -58
-225 -76 -78 -15 -191 -65 -232 -101 -57 -52 -100 -73 -152 -73 -40 0 -56 5
-72 23 -20 21 -22 21 -35 4 -7 -10 -11 -27 -8 -37 5 -19 0 -20 -83 -20 -49 0
-154 -9 -234 -20 -80 -11 -308 -29 -508 -40 -387 -21 -589 -39 -796 -71 -71
-10 -148 -19 -172 -19 -24 0 -65 -8 -91 -19 -26 -10 -138 -40 -247 -66 -181
-44 -203 -47 -230 -35 -17 8 -56 13 -86 13 -30 -1 -102 -1 -160 -1 -58 0 -117
-1 -132 -1 -16 0 -28 4 -28 8 0 5 -13 11 -29 14 -18 4 -32 14 -36 27 -4 11
-10 18 -14 16 -4 -3 -32 11 -61 30 -39 26 -61 34 -80 30 -26 -5 -130 31 -130
46 0 4 -22 8 -48 8 -34 0 -54 -5 -65 -18 -9 -10 -49 -34 -89 -55 -82 -42 -162
-55 -186 -30 -8 8 -23 12 -33 10 -11 -3 -22 -1 -25 4 -9 15 -46 10 -104 -12
-30 -12 -65 -23 -77 -26 -30 -7 -91 15 -103 37 -13 25 -68 38 -148 38 -46 -1
-65 -5 -72 -17 -4 -9 -12 -13 -16 -9 -3 4 -22 1 -41 -7 -50 -21 -161 -19 -254
5 -44 12 -85 18 -91 14 -6 -4 -68 -7 -137 -8 -115 -1 -129 -3 -155 -24 -36
-28 -97 -29 -140 -3 -27 17 -52 20 -191 21 -88 1 -187 0 -220 -2 -33 -2 -86
-5 -118 -6 -56 -2 -59 -3 -73 -37 l-14 -35 -88 5 c-48 2 -105 11 -127 19 -22
8 -48 15 -58 16 -10 0 -34 7 -55 16 -20 8 -37 14 -37 13 0 -1 -11 4 -25 12
-14 7 -34 14 -45 15 -60 6 -171 26 -177 33 -4 3 -14 28 -22 54 l-14 47 29 0
c16 0 29 -4 29 -10 0 -5 -6 -10 -13 -10 -7 0 -13 -9 -13 -20 0 -22 11 -27 20
-7 4 6 4 2 2 -10 l-4 -22 29 21 c25 19 40 21 141 19 65 -1 183 7 278 18 91 11
215 23 277 26 77 5 116 12 124 21 7 9 31 14 65 14 30 0 54 5 54 10 0 6 17 10
38 10 20 0 50 7 66 15 15 8 43 15 61 15 18 0 38 7 45 15 7 9 19 14 26 11 8 -3
29 1 48 9 20 8 52 15 71 15 20 0 43 7 51 15 9 8 26 15 39 15 12 0 36 7 51 15
16 8 40 15 53 15 13 0 42 5 65 11 22 6 55 14 73 19 19 5 33 4 35 -2 2 -6 14
-5 31 1 16 6 51 11 78 11 29 0 49 4 49 11 0 8 24 9 80 4 56 -5 80 -4 80 4 0 7
31 11 89 11 48 0 101 5 118 10 44 16 204 28 238 18 19 -5 31 -4 33 2 2 5 28
10 58 10 30 0 54 5 54 10 0 6 28 10 65 10 51 0 65 3 65 15 0 11 11 15 35 15
20 0 51 7 70 14 19 8 35 13 35 10 0 -3 13 4 28 14 15 11 54 31 87 44 46 19 61
29 63 47 3 16 15 28 42 38 26 10 40 23 42 37 2 16 11 22 41 24 21 2 37 -1 37
-7 0 -29 57 5 79 47 8 15 21 22 43 22 22 0 39 9 60 32 15 17 28 35 28 40 0 4
13 8 29 8 17 0 34 8 42 20 8 11 25 23 38 25 14 3 29 11 33 20 5 8 18 15 28 15
13 0 20 7 20 18 0 16 48 62 64 62 7 0 38 25 79 63 17 15 27 27 23 27 -3 0 11
16 33 35 33 30 45 35 90 35 l51 0 0 40 c0 39 1 40 33 40 24 0 42 9 65 33 36
37 33 47 -11 47 -42 0 -29 9 20 14 22 2 55 11 73 21 27 14 34 14 41 3 6 -10
11 -9 23 7 9 11 16 22 16 25 0 13 61 40 89 40 22 0 31 5 31 16 0 16 38 56 91
97 13 9 33 17 46 17 17 0 23 6 23 22 0 29 28 58 57 58 18 0 23 5 23 25 0 23 4
25 40 25 29 0 40 4 40 15 0 10 10 15 29 15 16 0 31 5 33 11 2 6 28 11 57 12
44 2 60 7 85 31 25 23 32 26 34 12 4 -20 16 -21 32 -1 9 10 28 14 69 11 31 -2
39 -1 19 1 -54 6 -52 33 2 33 22 0 40 5 40 10 0 6 18 10 40 10 29 0 40 4 40
15 0 10 10 15 29 15 16 0 31 4 33 8 2 4 23 17 48 29 41 19 46 19 52 4 4 -9 7
-11 7 -6 1 6 15 16 32 22 17 7 28 16 25 22 -4 5 -2 12 4 16 5 3 10 -3 10 -14
0 -18 6 -21 40 -21 22 0 40 4 40 9 0 5 12 11 28 13 23 3 27 8 30 41 4 41 22
52 22 12 0 -14 4 -25 9 -25 5 0 18 11 29 25 11 14 26 25 34 25 10 0 13 11 10
40 -3 31 -1 40 11 40 8 0 17 -7 21 -15 3 -8 15 -15 26 -15 11 0 20 7 20 15 0
8 -6 15 -13 15 -9 0 -11 12 -9 40 4 39 3 40 -27 40 -17 0 -31 5 -31 10 0 6 18
10 40 10 l40 0 0 -50z m4000 -328 c0 -5 -14 -24 -31 -43 -17 -19 -34 -39 -37
-44 -9 -13 -82 -70 -102 -78 -8 -4 -23 -13 -33 -19 -14 -11 -19 -10 -28 2 -8
12 -10 10 -5 -9 3 -17 2 -21 -6 -13 -7 7 -17 8 -29 1 -11 -6 -33 -6 -58 0 -47
10 -173 2 -165 -10 3 -5 -2 -9 -10 -9 -8 0 -18 5 -21 10 -3 6 -16 9 -28 9 -17
-1 -18 -2 -4 -6 9 -2 17 -8 17 -13 0 -13 -24 -18 -42 -8 -11 5 -25 5 -35 -1
-10 -5 -55 -12 -100 -16 l-83 -7 0 26 c0 22 -4 26 -30 26 -53 0 -26 40 32 46
17 2 38 10 46 16 17 14 20 15 177 22 61 3 121 10 135 15 14 5 63 14 110 21 47
7 88 17 91 23 4 5 31 12 60 15 30 2 59 9 66 14 7 5 22 8 35 7 13 -2 34 4 48
14 28 19 30 20 30 9z m-9484 -157 c5 -12 20 -13 82 -8 76 6 77 6 60 -14 -31
-34 -23 -53 22 -53 22 0 40 -4 40 -10 0 -5 18 -10 40 -10 22 0 40 -5 40 -10 0
-6 17 -27 38 -48 l37 -37 3 33 c5 49 32 43 32 -8 0 -36 3 -40 25 -40 14 0 25
6 26 13 0 10 2 10 6 0 2 -7 18 -13 34 -13 16 0 29 6 30 13 0 10 2 10 6 0 2 -8
22 -13 44 -13 39 0 39 0 39 -40 0 -23 -5 -40 -11 -40 -8 0 -8 -5 1 -15 7 -8
10 -26 8 -40 -4 -21 -1 -25 18 -25 21 0 24 -5 24 -40 0 -29 4 -40 15 -40 11 0
15 -11 15 -40 l0 -40 45 0 45 0 0 -40 c0 -36 -2 -40 -25 -40 -18 0 -25 5 -25
20 0 11 -7 20 -15 20 -8 0 -15 -7 -15 -15 0 -11 -14 -15 -57 -17 l-58 -1 60
-7 c53 -6 55 -7 18 -8 -31 -2 -43 -6 -43 -17 0 -12 -16 -15 -80 -15 -73 0 -80
-2 -80 -20 0 -13 -7 -20 -20 -20 -17 0 -20 7 -20 39 0 36 -3 40 -27 43 -29 3
-34 19 -19 63 5 15 4 14 -5 -2 -13 -24 -69 -34 -69 -12 0 8 -24 9 -80 4 -67
-6 -80 -5 -80 8 0 16 -76 27 -181 27 -46 0 -59 3 -59 15 0 8 -7 15 -15 15 -8
0 -20 9 -27 20 -9 14 -24 20 -49 20 -24 0 -39 5 -43 15 -7 20 -24 19 -29 -2
-3 -10 -5 -1 -6 19 0 20 -7 39 -13 41 -8 3 -6 6 5 6 9 1 17 8 17 16 0 11 -11
15 -40 15 -36 0 -40 3 -40 25 0 20 5 25 25 25 23 0 25 4 25 40 0 27 4 40 14
40 7 0 16 9 19 21 5 17 12 20 53 18 39 -2 50 1 62 19 8 12 22 22 32 22 22 0
92 68 84 82 -3 5 -3 20 0 34 7 26 33 33 42 9z m5983 -3533 c52 -1 92 -5 88 -8
-3 -4 -172 -8 -374 -9 -202 -2 -442 -3 -533 -4 -220 -2 -220 -2 -220 9 0 5 49
11 113 12 110 3 743 3 926 0z m-3725 -119 c87 -5 104 -3 119 11 16 16 18 16
23 1 4 -9 0 -24 -10 -33 -9 -9 -16 -12 -16 -7 0 6 -50 11 -118 12 -111 1 -114
1 -62 -10 l55 -11 -55 -6 c-61 -6 -45 -17 30 -19 25 -1 52 -3 60 -3 8 -1 31 0
50 1 27 1 31 4 20 11 -13 8 -12 10 3 10 13 0 17 -8 17 -32 2 -163 17 -318 35
-362 6 -15 5 -17 -5 -11 -8 5 -18 1 -27 -10 -7 -11 -13 -14 -13 -8 0 6 -16 11
-36 10 -19 -1 -38 4 -42 10 -4 5 -54 13 -112 16 -140 8 -210 24 -210 49 0 15
-5 18 -22 12 -13 -3 -29 -12 -37 -18 -11 -8 -15 -8 -18 2 -3 6 -19 12 -38 12
-18 0 -51 7 -74 15 -34 12 -46 12 -73 1 -25 -10 -62 -11 -158 -4 -69 4 -146 8
-172 8 -41 -1 -48 2 -48 19 0 17 -9 20 -87 24 -92 5 -148 16 -198 37 -16 7
-36 12 -42 11 -7 -1 -13 5 -13 14 0 18 -31 20 -48 3 -9 -9 -12 -9 -12 0 0 7
-6 12 -14 12 -7 0 -17 10 -20 23 l-7 22 -11 -22 c-12 -26 -28 -30 -28 -9 0 7
-15 17 -32 20 l-33 7 35 19 c19 10 34 21 32 24 -2 4 -2 12 1 19 3 9 7 9 19 0
20 -17 28 -7 28 34 0 23 5 33 16 33 24 0 6 20 -19 21 -21 0 -21 1 3 12 38 18
53 34 37 41 -6 3 23 4 66 2 87 -5 99 -10 72 -30 -17 -12 -17 -13 7 -19 15 -4
41 -4 59 0 l33 6 -34 14 c-39 15 -27 14 265 -7 72 -5 175 -10 230 -10 55 -1
94 -4 86 -7 -11 -5 -11 -7 0 -14 11 -7 9 -9 -6 -10 -11 0 5 -9 35 -20 33 -12
76 -19 107 -18 29 2 56 0 59 -4 4 -4 19 0 33 8 14 8 43 21 64 29 35 14 37 17
25 36 -11 17 -11 22 2 30 13 9 13 10 0 11 -8 1 8 5 35 8 28 4 59 3 69 -2 10
-5 65 -12 120 -14z m1474 -34 c17 1 32 -4 32 -9 0 -10 -2 -11 -35 -15 -11 -1
-31 -6 -45 -10 -23 -8 -23 -9 15 -16 22 -4 91 -8 153 -8 103 -1 112 -3 112
-20 0 -16 10 -20 78 -25 42 -4 163 -9 267 -11 105 -3 215 -9 245 -15 53 -9
430 -39 575 -45 39 -2 124 -11 191 -19 66 -9 136 -16 155 -16 19 1 84 -4 144
-10 61 -6 176 -13 257 -15 81 -2 152 -6 158 -10 5 -3 10 -15 10 -25 0 -10 7
-23 16 -28 14 -8 11 -11 -15 -23 -17 -8 -31 -17 -31 -21 0 -13 66 -20 101 -10
33 9 32 11 -13 26 -42 13 -3 45 69 56 23 4 40 3 37 -2 -3 -4 5 -8 19 -8 13 0
33 -9 45 -20 12 -11 31 -20 44 -21 13 0 17 -3 10 -6 -6 -2 -10 -9 -6 -14 6
-11 41 -12 47 -1 2 4 2 1 1 -6 -2 -7 2 -12 9 -11 32 4 46 -2 41 -16 -4 -11 1
-15 17 -15 13 0 37 -9 53 -19 16 -11 35 -17 41 -14 7 2 16 0 20 -6 9 -16 152
-14 158 2 3 6 6 0 6 -14 1 -31 22 -52 48 -47 12 2 18 -3 17 -14 -1 -11 5 -18
16 -18 9 0 34 -12 55 -26 21 -14 46 -23 57 -21 10 3 18 2 18 -1 0 -4 15 -19
34 -34 28 -23 39 -26 59 -19 15 6 28 6 34 0 5 -5 38 -15 73 -22 57 -12 65 -16
63 -35 -2 -12 2 -22 7 -22 6 0 10 5 10 10 0 6 7 10 15 10 8 0 15 5 15 12 0 6
3 8 6 5 6 -6 14 -43 17 -79 2 -21 8 -23 25 -6 7 7 12 8 12 4 0 -5 6 -3 14 3 9
8 21 8 40 2 23 -9 25 -13 15 -38 -6 -15 -13 -39 -15 -53 -2 -14 -5 -32 -6 -40
-2 -8 2 -17 7 -20 6 -3 11 7 13 23 2 15 7 27 12 27 13 0 24 -46 16 -65 -3 -8
-1 -15 4 -15 6 0 10 14 10 31 0 47 19 25 26 -31 6 -47 8 -50 35 -50 21 0 29 5
30 18 0 9 6 1 13 -18 l13 -35 10 45 10 45 8 -43 c4 -24 11 -38 15 -32 9 15 80
2 80 -15 0 -20 -100 -26 -131 -7 -25 14 -30 13 -73 -8 -26 -12 -64 -23 -85
-24 -32 -1 -37 -4 -34 -21 3 -18 3 -18 -6 1 -21 48 -144 100 -214 91 -80 -11
-118 -93 -76 -166 12 -23 31 -43 41 -47 21 -6 24 -20 6 -28 -7 -3 -1 -3 15 0
27 6 39 -10 15 -19 -8 -3 -5 -6 5 -6 11 -1 17 -7 14 -13 -2 -7 -10 -12 -16
-11 -6 2 -11 -10 -11 -27 0 -16 3 -29 8 -29 4 1 19 1 35 0 21 -1 27 -6 27 -23
0 -12 7 -30 17 -40 15 -17 14 -18 -15 -18 -31 0 -32 -2 -32 -40 0 -29 4 -40
15 -40 11 0 15 -11 15 -40 0 -30 4 -40 16 -40 14 0 14 -3 4 -15 -10 -11 -29
-15 -67 -14 -52 2 -56 1 -89 -36 -26 -30 -37 -36 -46 -27 -17 17 -58 15 -58
-2 0 -8 3 -16 8 -19 4 -2 0 -2 -8 1 -8 2 -138 6 -287 7 -229 3 -273 1 -273
-11 0 -11 -18 -14 -80 -14 -64 0 -80 3 -80 15 0 11 11 15 40 15 22 0 40 5 40
10 0 6 -15 10 -34 10 -36 0 -95 -42 -99 -71 -6 -34 -18 -39 -108 -39 -94 0
-94 0 -139 -60 l-18 -25 -178 0 c-133 0 -178 3 -181 13 -3 6 -11 12 -18 12 -7
0 -16 -6 -18 -12 -3 -8 -6 -6 -6 5 -1 12 -9 17 -31 17 -16 0 -30 5 -30 10 0 6
-20 10 -45 10 -39 0 -46 3 -60 30 -13 25 -22 30 -51 30 -27 0 -43 8 -65 31
-16 17 -33 28 -38 25 -5 -3 -14 1 -21 9 -7 8 -17 15 -23 15 -15 0 -36 33 -37
58 0 12 -4 22 -9 22 -12 0 -71 59 -71 71 0 5 -4 9 -9 9 -12 0 -71 59 -71 71 0
5 7 9 15 9 11 0 15 11 15 40 0 31 -4 40 -17 40 -15 0 -18 8 -15 54 3 44 1 54
-15 60 -33 12 -63 31 -63 38 0 12 48 10 55 -2 3 -5 10 -10 16 -10 5 0 9 5 9
10 0 6 -4 10 -9 10 -12 0 -71 59 -71 71 0 5 7 9 16 9 13 0 14 3 4 15 -7 8 -16
12 -21 9 -10 -6 -79 60 -79 75 0 6 -7 8 -15 5 -8 -4 -15 -10 -15 -15 0 -5 7
-9 15 -9 8 0 15 -7 15 -15 0 -11 -11 -15 -40 -15 -38 0 -40 2 -40 30 0 28 -2
30 -40 30 -22 0 -40 4 -40 9 0 6 -23 11 -52 13 -30 2 -53 8 -56 16 -2 6 3 12
12 12 9 0 16 5 16 10 0 6 -19 10 -42 11 -24 1 -60 2 -80 3 -35 2 -38 0 -38
-26 0 -27 -2 -28 -49 -28 -31 0 -53 5 -61 15 -7 8 -21 15 -31 15 -12 0 -19 7
-19 20 0 17 -7 20 -53 20 -31 0 -61 6 -73 15 -25 19 -34 19 -34 -1 0 -13 -5
-15 -22 -9 -13 4 -49 10 -80 12 -55 5 -73 15 -45 27 6 3 -10 3 -36 2 -35 -3
-50 0 -54 10 -3 8 -19 14 -40 14 -25 0 -43 9 -70 35 -41 40 -53 43 -53 15 0
-20 -24 -28 -34 -11 -10 15 -126 34 -126 21 0 -11 -74 0 -78 12 -2 4 -21 8
-43 8 -28 0 -39 4 -39 15 0 8 -9 15 -19 15 -24 0 -36 16 -19 24 7 3 -2 3 -20
0 -30 -5 -37 -2 -69 35 -21 25 -43 41 -57 41 -12 0 -31 8 -42 18 -49 44 -53
45 -71 31 -13 -11 -17 -11 -20 -1 -3 6 -13 12 -23 12 -10 0 -22 5 -25 10 -3 6
-31 10 -61 10 -33 0 -54 4 -54 11 0 7 -17 10 -47 7 -36 -3 -57 1 -83 17 -19
11 -52 29 -72 40 -41 21 -47 35 -23 55 9 7 14 18 12 24 -2 6 1 22 8 36 15 29
36 126 37 168 1 28 1 29 44 19 45 -11 54 -8 58 15 1 7 5 19 9 26 5 6 5 17 2
22 -7 11 3 16 57 25 29 4 41 2 57 -14 19 -19 26 -20 128 -10 73 7 121 7 148 0
22 -5 57 -13 78 -16 20 -3 46 -16 57 -28 12 -12 34 -22 53 -23 19 -1 40 -11
52 -25 31 -35 55 -44 103 -41 l42 3 0 50 c0 29 8 63 19 85 11 20 17 43 14 51
-9 23 18 35 62 27 22 -3 55 -6 73 -5z m3792 -1324 c5 -3 10 -40 10 -81 l0 -74
-65 0 c-41 0 -65 4 -65 11 0 6 -11 20 -25 31 -14 11 -25 24 -25 29 0 5 11 9
25 9 23 0 25 4 25 46 l0 47 55 -6 c30 -3 59 -8 65 -12z"/>
<path d="M14125 5269 c-22 -4 -146 -8 -275 -7 -156 0 -245 -4 -265 -11 -16 -7
-65 -17 -108 -22 -43 -5 -86 -14 -95 -19 -9 -5 -38 -14 -65 -22 -26 -7 -46
-16 -44 -21 4 -12 5 -12 112 8 90 16 135 14 135 -6 0 -5 6 -9 14 -9 8 0 17 -7
20 -16 8 -22 8 -24 -6 -24 -6 0 -18 -7 -27 -15 -9 -7 -31 -27 -48 -43 -18 -16
-33 -32 -33 -36 0 -3 23 -6 50 -6 36 0 50 -4 50 -14 0 -21 76 -26 160 -11 93
17 146 23 280 31 64 3 128 14 165 26 41 14 108 23 214 30 132 8 161 13 202 34
27 13 58 24 70 24 21 0 70 23 101 49 13 10 32 12 68 8 37 -5 61 -2 86 10 52
25 42 36 -26 28 -50 -6 -65 -4 -93 14 -41 25 -85 27 -300 13 -165 -11 -227 -8
-227 9 0 11 -60 10 -115 -2z"/>
<path d="M11595 4641 c6 -11 4 -13 -10 -7 -12 4 -26 0 -39 -13 -13 -11 -41
-20 -74 -23 -29 -3 -59 -11 -65 -18 -9 -10 -9 -11 1 -6 6 4 12 2 12 -3 0 -6
-21 -10 -48 -10 -59 2 -102 -22 -95 -51 3 -11 0 -20 -6 -20 -6 0 -11 5 -11 10
0 6 -9 10 -20 10 -11 0 -20 -4 -20 -9 0 -11 57 -22 83 -16 12 3 49 2 82 -3
l61 -8 -4 28 c-4 27 -3 28 37 28 34 0 41 -3 41 -19 0 -14 5 -18 20 -14 31 8
43 28 25 43 -14 11 -13 14 7 24 26 13 43 66 26 81 -8 7 -9 6 -3 -4z"/>
<path d="M11980 2410 c0 -5 -6 -10 -14 -10 -23 0 -7 -68 22 -97 14 -14 41 -32
59 -40 19 -7 31 -18 28 -22 -3 -5 28 -21 67 -36 40 -15 77 -31 82 -36 5 -4 14
-6 20 -5 6 2 8 1 4 -1 -20 -12 -4 -23 32 -23 22 0 40 -5 40 -10 0 -7 6 -7 20
0 11 6 20 17 20 25 0 9 9 23 20 32 22 19 27 53 9 53 -7 0 -27 17 -47 38 -34
36 -39 37 -146 52 -109 15 -111 15 -114 43 -3 24 -7 27 -43 27 -21 0 -39 5
-39 10 0 6 -4 10 -10 10 -5 0 -10 -4 -10 -10z"/>
<path d="M13686 2052 c-5 -9 -18 -12 -96 -26 -50 -9 -80 -26 -116 -66 -20 -22
-42 -40 -50 -40 -16 0 -29 -59 -19 -89 3 -12 11 -21 16 -21 6 0 35 -11 64 -26
30 -14 73 -25 97 -26 43 -1 98 -17 98 -30 0 -3 18 -9 39 -13 22 -4 42 -13 45
-21 3 -8 19 -14 40 -14 19 0 36 -6 39 -12 4 -10 7 -10 18 0 7 6 23 12 35 12
12 0 24 6 27 13 3 9 11 9 40 -1 37 -13 70 -8 134 21 25 11 97 11 270 1 107 -6
125 -5 149 10 23 16 53 18 232 18 136 0 212 4 224 11 12 8 18 24 18 47 0 32
-4 37 -49 58 -27 12 -57 22 -67 22 -20 0 -95 25 -126 41 -22 12 -171 29 -318
36 -58 3 -109 8 -115 13 -21 17 -121 40 -174 40 -31 0 -72 5 -91 10 -39 11
-87 18 -175 25 -33 3 -88 8 -121 11 -37 4 -64 2 -68 -4z"/>
</g>
</svg>
