<svg width="29" height="26" viewBox="0 0 29 26" fill="none" xmlns="http://www.w3.org/2000/svg">
<path d="M6.5827 24.9306C6.69332 25.0296 6.83802 25.079 6.98294 25.079C7.12786 25.079 7.27278 25.0294 7.38341 24.9304L9.12267 23.3711C9.6893 22.8635 9.9621 22.1682 9.88334 21.4656L10.507 20.9256C11.002 20.498 11.6527 20.2623 12.339 20.2623H19.7965C21.1325 20.2623 22.3952 19.8023 23.3518 18.967C23.366 18.9547 23.3793 18.9418 23.3919 18.9281L28.4661 13.4652C29.2723 12.6098 29.1518 11.3256 28.1968 10.602C27.2481 9.88509 25.8263 9.98824 25.0177 10.8293L24.4696 11.3375V1.42188C24.4696 1.14139 24.2158 0.914062 23.9032 0.914062H9.34592C9.03329 0.914062 8.77951 1.14139 8.77951 1.42188V12.7995C6.58602 13.2123 4.84631 14.433 3.90931 16.2175C3.17032 16.1832 2.44971 16.4267 1.91494 16.9068L0.166825 18.4663C0.0601812 18.5615 0.000221862 18.6909 6.10155e-07 18.8258C-0.000220642 18.9608 0.0597387 19.0902 0.166161 19.1856L6.5827 24.9306ZM23.3368 1.92969V12.3877L21.6975 13.9071C21.2756 13.4424 20.6327 13.1527 19.9381 13.1527H13.3709C13.3347 13.1527 13.2953 13.1452 13.2557 13.1309C12.3733 12.8084 11.439 12.6449 10.4789 12.6449C10.2893 12.6449 10.1004 12.6511 9.91254 12.6622V1.92969H23.3368ZM9.42712 13.7274C10.573 13.5788 11.7188 13.6661 12.8302 14.0722C13.0068 14.136 13.1888 14.1686 13.3709 14.1686H19.9381C20.5523 14.1686 21.071 14.6177 21.071 15.1842C21.071 15.7442 20.5627 16.1998 19.9381 16.1998H15.0102C14.6976 16.1998 14.4438 16.4271 14.4438 16.7076C14.4438 16.9881 14.6976 17.2154 15.0102 17.2154H19.9381C21.1876 17.2154 22.2038 16.3042 22.2038 15.1842C22.2038 15.0945 22.1965 15.0055 22.1836 14.9176C22.3018 14.8091 25.7254 11.6345 25.844 11.5244C25.8527 11.5162 25.8613 11.5079 25.8693 11.4994C26.2728 11.0721 26.9895 11.0181 27.4663 11.3784C27.9435 11.74 28.0039 12.3821 27.5981 12.8125L22.541 18.2572C21.7995 18.8956 20.826 19.2467 19.7965 19.2467H12.339C11.3578 19.2467 10.4281 19.5831 9.7205 20.1947L9.4707 20.4109C9.3707 20.273 9.25432 20.1443 9.12289 20.0267L5.64392 16.9076C5.45807 16.741 5.24722 16.6025 5.01911 16.4932C5.88443 14.963 7.43009 13.9877 9.42712 13.7274ZM2.71521 17.6257C3.31038 17.0913 4.26154 17.1044 4.84277 17.6259L8.32218 20.7451C8.9054 21.267 8.9158 22.1208 8.32196 22.6526L6.9825 23.8533L1.36867 18.827L2.71521 17.6257Z" fill="white"/>
</svg>
