<svg width="512" height="512" xmlns="http://www.w3.org/2000/svg">

 <g>
  <title>background</title>
  <rect fill="none" id="canvas_background" height="602" width="802" y="-1" x="-1"/>
 </g>
 <g>
  <title>Layer 1</title>
  <g id="svg_4">
   <g id="svg_5">
    <path fill="#1867c0" id="svg_6" d="m459.993,395.982c-0.039,-0.1 -0.079,-0.199 -0.121,-0.297c-9.204,-21.537 -30.79,-29.497 -56.336,-20.772l-69.668,19.266c-4.028,-12.198 -14.075,-22.578 -28.281,-27.85c-0.088,-0.032 -0.176,-0.064 -0.265,-0.094l-76.581,-25.992c-6.374,-8.239 -26.34,-29.321 -63.723,-29.321c-26.125,0 -49.236,17.922 -62.458,37.457l-92.56,0c-5.523,0 -10,4.477 -10,10l0,126.077c0,5.523 4.477,10 10,10l59.457,0c5.523,0 10,-4.477 10,-10l0,-8.634l27.883,0c5.523,0 10,-4.477 10,-10l0,-2.878c16.254,1.418 21.6,4.501 36.528,13.109c11.48,6.62 28.831,16.625 60.077,30.674c0.145,0.065 0.292,0.127 0.439,0.185c5.997,2.359 17.72,6.065 32.173,6.065c10.06,0 21.445,-1.797 33.131,-7.094l153.991,-55.136c0.274,-0.098 0.544,-0.208 0.808,-0.33c14.717,-6.771 36.648,-25.854 25.506,-54.435zm-400.536,78.473l-39.457,0l0,-106.077l39.457,0l0,106.077zm37.883,-18.634l-17.883,0l0,-87.443l17.883,0l0,87.443zm329.156,-23.747l-153.922,55.111c-0.135,0.048 -0.318,0.12 -0.451,0.174c-0.135,0.055 -0.27,0.113 -0.403,0.174c-21.437,9.852 -41.814,3.954 -49.8,0.849c-30.182,-13.581 -46.291,-22.87 -58.061,-29.657c-16.364,-9.436 -24.249,-13.984 -46.519,-15.823l0,-80.542c9.479,-15.536 27.861,-31.439 47.679,-31.439c33.986,0 48.387,22.105 48.953,22.997c1.221,1.986 3.098,3.483 5.305,4.232l79.475,26.974c12.693,4.764 19.401,15.634 16.318,26.474c-1.423,5.006 -4.711,9.158 -9.257,11.691c-4.507,2.511 -9.717,3.132 -14.683,1.758l-89.593,-28.392c-5.268,-1.669 -10.886,1.247 -12.554,6.512c-1.669,5.265 1.247,10.885 6.512,12.554l89.749,28.441c0.095,0.03 0.19,0.059 0.286,0.086c3.583,1.019 7.231,1.523 10.857,1.523c6.638,0 13.203,-1.691 19.161,-5.011c9.213,-5.133 15.875,-13.547 18.759,-23.692c0.23,-0.81 0.434,-1.62 0.611,-2.43l75.083,-20.8c10.844,-3.704 25.079,-5.039 31.417,9.558c6.56,17.137 -10.49,26.564 -14.922,28.678z"/>
   </g>
  </g>
  <g id="svg_10">
   <g id="svg_11">
    <path fill="#1867c0" id="svg_12" d="m502,33.891l-59.457,0c-5.523,0 -10,4.477 -10,10l0,8.634l-27.883,0c-5.523,0 -10,4.477 -10,10l0,2.878c-16.254,-1.419 -21.6,-4.501 -36.527,-13.109c-11.48,-6.62 -28.831,-16.625 -60.078,-30.674c-0.145,-0.066 -0.291,-0.127 -0.44,-0.185c-10.171,-4.002 -36.828,-11.876 -65.299,1.027l-40.24,14.408l-33.919,-33.918c-3.905,-3.905 -10.237,-3.905 -14.142,0l-111.358,111.357c-3.602,3.603 -4.293,9.85 0,14.143l190.287,190.287c3.045,3.046 10.175,3.967 14.143,0l101.665,-101.664c2.643,0.228 5.386,0.351 8.229,0.351c26.126,0 49.236,-17.922 62.457,-37.456l92.562,0c5.523,0 10,-4.477 10,-10l0,-126.079c0,-5.523 -4.477,-10 -10,-10zm-350.915,-9.726l22.792,22.792c-6.775,4.19 -14.608,6.432 -22.792,6.432c-8.185,0 -16.017,-2.241 -22.792,-6.432l22.792,-22.792zm-74.422,120.008l-22.792,-22.793l22.792,-22.792c4.19,6.775 6.432,14.608 6.432,22.792c0,8.184 -2.241,16.017 -6.432,22.793zm153.353,153.352l-22.788,-22.788c13.913,-8.586 31.661,-8.586 45.575,0l-22.787,22.788zm37.195,-37.194c-22.098,-16.03 -52.292,-16.03 -74.39,0l-101.751,-101.752c7.809,-10.74 12.025,-23.641 12.025,-37.199c0,-13.559 -4.215,-26.459 -12.025,-37.199l22.817,-22.816c10.74,7.809 23.64,12.025 37.199,12.025c13.559,0 26.459,-4.216 37.199,-12.025l21.629,21.629c-4.667,0.689 -9.218,2.227 -13.462,4.592c-7.168,3.994 -12.792,9.975 -16.294,17.211c-11.28,2.089 -21.723,7.55 -29.915,15.741c-22.225,22.226 -22.225,58.389 0.001,80.615c11.112,11.112 25.709,16.669 40.307,16.669c14.597,0 29.195,-5.556 40.308,-16.669c7.23,-7.23 12.295,-16.116 14.832,-25.8l33.764,11.459c-3.801,17.608 0.092,36.132 10.593,50.682l-22.837,22.837zm-60.798,-98.313c0.088,0.032 0.176,0.064 0.265,0.094l19.996,6.787c-1.51,6.815 -4.927,13.081 -9.957,18.112c-14.428,14.426 -37.904,14.428 -52.33,0c-14.428,-14.427 -14.428,-37.902 0,-52.33c3.48,-3.482 7.587,-6.203 12.062,-8.048c1.846,15.362 12.907,29.055 29.964,35.385zm98.044,61.066c-3.86,-6.29 -6.044,-13.469 -6.389,-20.796c4.79,3.463 10.644,6.856 17.636,9.549l-11.247,11.247zm90.202,-57.101c-9.478,15.538 -27.86,31.441 -47.678,31.441c-3.708,0 -7.183,-0.264 -10.432,-0.734c-0.013,-0.002 -0.026,-0.004 -0.039,-0.006c-21.596,-3.137 -33.213,-15.411 -37.042,-20.271c-0.204,-0.3 -1.073,-1.437 -1.202,-1.626c-1.165,-2.082 -3.075,-3.756 -5.511,-4.583l-79.508,-26.985c-12.688,-4.762 -19.395,-15.627 -16.321,-26.463c0.002,-0.007 0.004,-0.014 0.006,-0.021c0.003,-0.008 0.005,-0.017 0.007,-0.025c1.429,-4.99 4.711,-9.129 9.247,-11.656c4.506,-2.511 9.715,-3.134 14.683,-1.757l89.593,28.391c5.266,1.671 10.886,-1.247 12.554,-6.512c1.668,-5.265 -1.247,-10.885 -6.512,-12.554l-71.255,-22.58l-0.622,-0.622c-0.006,-0.006 -0.012,-0.013 -0.019,-0.019l-36.89,-36.89l31.708,-11.354c0.107,-0.039 0.239,-0.088 0.345,-0.131c0.027,-0.011 0.079,-0.031 0.105,-0.042c0.136,-0.055 0.27,-0.113 0.403,-0.174c21.436,-9.852 41.812,-3.955 49.799,-0.849c30.183,13.581 46.293,22.87 58.063,29.657c16.364,9.437 24.249,13.984 46.518,15.823l0,80.542zm37.884,-6.015l-17.883,0l0,-87.443l17.883,0l0,87.443zm59.457,0l-39.457,0l0,-106.077l39.457,0l0,106.077z"/>
   </g>
  </g>
  <g id="svg_13"/>
  <g id="svg_14"/>
  <g id="svg_15"/>
  <g id="svg_16"/>
  <g id="svg_17"/>
  <g id="svg_18"/>
  <g id="svg_19"/>
  <g id="svg_20"/>
  <g id="svg_21"/>
  <g id="svg_22"/>
  <g id="svg_23"/>
  <g id="svg_24"/>
  <g id="svg_25"/>
  <g id="svg_26"/>
  <g id="svg_27"/>
 </g>
</svg>