<svg width="512.00048" height="512" xmlns="http://www.w3.org/2000/svg">

 <g>
  <title>background</title>
  <rect fill="none" id="canvas_background" height="602" width="802" y="-1" x="-1"/>
 </g>
 <g>
  <title>Layer 1</title>
  <path fill="#1867c0" id="svg_2" d="m234.00781,81.00391l0,20c0,33.14843 26.85157,60 60,60c33.08594,0 60.00391,-26.91407 60.00391,-60l0,-20c5.52344,0 10,-4.47657 10,-10c0,-5.52344 -4.47656,-10 -10,-10l-20,0c-5.52344,0 -10,4.47656 -10,10c0,5.52343 4.47656,10 10,10l0,20c0,22.05468 -17.94531,40 -40.00391,40c-22.08984,0 -40,-17.90235 -40,-40l0,-20c5.52344,0 10,-4.47657 10,-10c0,-5.52344 -4.47656,-10 -10,-10l-20,0c-5.52344,0 -10,4.47656 -10,10c0,5.52343 4.47656,10 10,10z"/>
  <path fill="#1867c0" id="svg_3" d="m116.21875,472.94141c1.95313,1.94922 4.50781,2.92187 7.06641,2.92187s5.11718,-0.97656 7.07031,-2.92578l30.70703,-30.70703c10.00391,-9.99609 14.82031,-23.6875 13.42969,-37.52344l11.01172,-10.63281c8.73828,-8.42188 20.22656,-13.0625 32.34375,-13.0625l131.66406,0c23.58594,0 45.87891,-9.05859 62.76953,-25.50781c0.25,-0.24219 0.48438,-0.4961 0.70703,-0.76563l89.58594,-107.57812c14.23437,-16.84375 12.10547,-42.13282 -4.75391,-56.38282c-16.75,-14.11718 -41.85156,-12.08593 -56.1289,4.47657l-9.67579,10.00781l0,-195.26172c0,-5.52344 -4.48046,-10 -10,-10l-257.01171,0c-5.51954,0 -10,4.47656 -10,10l0,224.05078c-38.72657,8.12891 -69.44141,32.16797 -85.98438,67.3086c-13.04687,-0.67579 -25.76953,4.12109 -35.21094,13.57421l-30.86328,30.71094c-1.88281,1.875 -2.9414,4.42188 -2.94531,7.07813c-0.00391,2.66015 1.05469,5.20703 2.93359,7.08593l113.28516,113.13282zm295.79688,-452.94141l0,205.94141l-28.94141,29.92187c-7.44922,-9.15234 -18.80078,-14.85547 -31.0625,-14.85547l-115.94531,0c-0.64063,0 -1.33594,-0.14843 -2.03516,-0.42968c-15.57813,-6.35157 -32.07422,-9.57032 -49.02344,-9.57032c-3.34765,0 -6.68359,0.1211 -10,0.33985l0,-211.34766l237.00782,0zm-245.57813,232.32422c20.23047,-2.92578 40.46094,-1.20703 60.08203,6.78906c3.11719,1.25781 6.33203,1.89844 9.54688,1.89844l115.94531,0c10.84375,0 20,8.84375 20,20c0,11.02734 -8.97266,20 -20,20l-87.00391,0c-5.51953,0 -10,4.47656 -10,10c0,5.52344 4.48047,10 10,10l87.00391,0c22.05859,0 40,-17.94531 40,-40c0,-1.76563 -0.12891,-3.51953 -0.35547,-5.25c2.08594,-2.13672 62.53125,-64.65235 64.625,-66.82031c0.15234,-0.16016 0.30469,-0.32422 0.44531,-0.49219c7.125,-8.41406 19.77735,-9.47656 28.19531,-2.38281c8.42579,7.12109 9.49219,19.76562 2.32813,28.24218l-89.28516,107.21875c-13.08984,12.57032 -30.27734,19.48438 -48.45312,19.48438l-131.66406,0c-17.32422,0 -33.73829,6.625 -46.23047,18.66797l-4.41016,4.25781c-1.76562,-2.71484 -3.82031,-5.25 -6.14062,-7.56641l-61.42188,-61.42187c-3.28125,-3.28125 -7.00391,-6.00781 -11.03125,-8.16016c15.27734,-30.13281 42.56641,-49.33984 77.82422,-54.46484zm-118.5,76.76562c10.50781,-10.52343 27.30078,-10.26562 37.5625,0.00391l61.42969,61.42578c10.29687,10.27734 10.48047,27.08984 -0.00391,37.5625l-23.64844,23.64453l-99.11328,-98.98047l23.77344,-23.65625zm0,0"/>
 </g>
</svg>